<svg xmlns="http://www.w3.org/2000/svg" width="402" height="459.36">
  <path fill="#FBDE34" d="M204.298 9.416c-2.106-1.216-4.703-1.216-6.81 0L11.909 116.561c-2.107 1.215-3.404 3.463-3.404 5.896v214.29c0 2.432 1.297 4.68 3.404 5.895l185.579 107.145c1.054.609 2.229.914 3.405.914 1.175 0 2.352-.305 3.404-.914l185.578-107.145c2.107-1.215 3.405-3.463 3.405-5.895v-214.29c0-2.433-1.298-4.681-3.405-5.896"/>
  <g fill="none" stroke="#343433" stroke-width="2.3" stroke-miterlimit="10" stroke-linecap="round" stroke-linejoin="round">
    <path d="M229.801 201.311h-58.339l.072-56.345h58.339zm.072 54.132l-.072 59.149h-58.339l.072-59.149m-15.351-54.132h89.023v19.67h-89.023zm-.043 40.99c10.252-5.053 26.286-8.303 44.31-8.303 18.227 0 34.42 3.324 44.654 8.475"/>
    <path d="M236.744 314.693l.432-48.443c0-6.523-6.021-11.197-9.611-13.402-7.088-4.352-16.629-6.75-26.871-6.75-10.24 0-19.783 2.398-26.87 6.75-3.589 2.205-9.61 6.879-9.61 13.402l-.431 48.393"/>
    <path d="M160.384 315.941v-50.84c0-13.592 17.938-24.609 40.065-24.609s40.064 11.018 40.064 24.609v51.625m-47.996-171.76l8.599-31.532m.038.028l8.588 31.504m-8.626-31.474l16.55 31.474m-16.473-31.532l-17.353 31.532m63.845-57.615l-6.058 29.809s-1.197 5.815-3.592 9.065h19.328c-2.395-3.25-3.592-9.065-3.592-9.065l-6.065-29.83"/>
    <path d="M247.706 87.373l-12.751 32.524s-4.166 9.388-7.898 10.682l10.967-4.345"/>
    <path d="M247.662 87.33l13.293 32.396s3.602 9.541 7.332 10.835l-10.967-4.345m-17.379.086v75.009m15.809-75.009v46.837m-26.641-43.341l-.062 5.228.771 1.866.082 63.054"/>
    <path d="M266.469 129.729l.062 5.227-.773 1.865-.081 11.157M153.706 87.351l6.058 29.809s1.198 5.815 3.592 9.065h-19.328c2.396-3.25 3.592-9.065 3.592-9.065l6.065-29.83"/>
    <path d="M153.685 87.373l12.75 32.524s4.168 9.388 7.899 10.682l-10.967-4.345"/>
    <path d="M153.729 87.33l-13.293 32.396s-3.601 9.541-7.332 10.835l10.967-4.345m17.378.086v75.007m-15.808-75.007v47.855m26.641-44.359l.063 5.228-.774 1.866-.08 63.054"/>
    <path d="M134.923 129.729l-.063 5.227.774 1.865.08 12.461m41.109 165.31l.025-27.775c0-10.766 10.675-19.49 23.845-19.49s23.846 8.725 23.846 19.49l-.026 27.775"/>
    <path d="M180.445 314.592l.026-21.998c0-9.131 9.054-16.529 20.222-16.529s20.223 7.398 20.223 16.529l-.026 21.998m-3.936-113.283c0-14.202-7.119-27.154-16.505-30.59-9.388 3.436-16.506 16.388-16.506 30.59"/>
    <path d="M223.541 197.34v3.969c0-17.393-9.67-33.335-23.092-36.446-13.423 3.11-23.093 19.053-23.093 36.446v-3.969m59.388 117.305H159.65m117.459-195.634l-10.887 53.569s-2.151 10.451-6.455 16.292h34.734c-4.303-5.841-6.455-16.292-6.455-16.292l-10.898-53.607"/>
    <path d="M277.148 119.05l-22.913 58.449s-7.491 16.87-14.196 19.197l19.707-7.809"/>
    <path d="M277.07 118.972l23.888 58.219s6.471 17.146 13.177 19.472l-19.708-7.808m-31.234.155v9.959l2.104 5.531v34.936m26.308-50.426v9.959l-2.103 5.531v34.992"/>
    <path d="M263.376 198.862s2.966-8.416 13.936-8.416 14.345 8.723 14.345 8.723m-47.93-3.876l-.114 9.395 1.39 3.352.575 111.78m17.354-131.001v9.957l-1.487 5.435.067 35.641"/>
    <path d="M243.85 205.102s2.004-9.09 9.42-11.59 9.697 5.453 9.697 5.453m53.547 138.228l1.075 13.893m-4.634-36.289l2.125 3.881.816 10.545m-5.031-134.056l.112 9.396-1.389 3.352.224 99.712m-18.154-118.933v9.957l1.487 5.433-.065 35.752"/>
    <path d="M310.74 204.977s-2.004-9.09-9.42-11.59c-7.415-2.5-9.696 5.453-9.696 5.453m18.181 105.769c0-1.102-14.342-1.994-32.359-1.994m32.087-53.822c1.166-.746 1.797-1.547 1.797-2.381 0-4.086-15.207-7.396-33.967-7.396s-33.969 3.311-33.969 7.396c0 .799.582 1.568 1.66 2.291m64.669 17.108c0-2.982-14.342-5.398-32.359-5.398s-32.047 2.416-32.047 5.398m64.406 19.4c0-2.041-14.342-3.699-32.359-3.699s-32.047 1.658-32.047 3.699m44.263-81.115c0-3.078-2.497-5.574-5.575-5.574-3.079 0-5.575 2.496-5.575 5.574h-1.968c0-3.078-2.495-5.574-5.573-5.574-3.08 0-5.576 2.496-5.576 5.574"/>
    <path d="M286.652 239.309v-23.327c0-5.072-4.112-9.185-9.184-9.185-5.072 0-9.186 4.112-9.186 9.185v23.327m-6.906-36.207c-.167-2.744-2.02-4.572-4.136-4.085s-3.697 3.106-3.529 5.851l-1.352.311c-.168-2.744-2.021-4.572-4.137-4.086-2.117.487-3.696 3.106-3.528 5.851m13.845 33.283v-24.058c0-5.071-2.428-8.648-5.423-7.99-2.995.659-5.424 5.305-5.424 10.377v23.326m45.056-38.78c.167-2.744 2.02-4.572 4.137-4.085 2.115.487 3.695 3.106 3.527 5.851l1.354.311c.168-2.744 2.02-4.572 4.136-4.086 2.118.487 3.696 3.106 3.528 5.851m-13.846 32.552v-23.328c0-5.071 2.43-8.648 5.424-7.99 2.995.659 5.424 5.305 5.424 10.377v23.326m71.672 68.547l-71.85.484-65.428-11.35m-.07 8.512l65.466 24.735h71.882m-32 21.8l-40.059.022-68.91-40.057m69.083-3.537v44.231m-20.728-48.182v35.779m-14.448-38.238v29.785M258.9 302.781v24.561m-7.531-26.096v21.793m-10.758-23.482v17.181m4.918-16.365v19.078m-121.441-200.44l10.886 53.569s2.151 10.451 6.455 16.292h-34.734c4.304-5.841 6.455-16.292 6.455-16.292l10.899-53.607"/>
    <path d="M124.049 119.05l22.913 58.449s7.49 16.87 14.196 19.197l-19.708-7.809"/>
    <path d="M124.127 118.972l-23.888 58.219s-6.472 17.146-13.178 19.472l19.708-7.808m31.234.155v9.959L135.9 204.5v36.012m-26.308-51.502v9.959l2.102 5.531v35.602"/>
    <path d="M137.82 198.862s-2.965-8.416-13.936-8.416c-10.97 0-14.345 8.723-14.345 8.723m47.932-3.876l.113 9.395-1.391 3.352-.574 111.78m-17.354-131.001v9.957l1.486 5.435-.064 36.176"/>
    <path d="M157.347 205.102s-2.003-9.09-9.419-11.59-9.697 5.453-9.697 5.453M84.684 337.193l-1.076 13.893m4.635-36.289l-2.125 3.881-.817 10.545m5.031-134.056l-.112 9.396 1.389 3.352-.225 99.712m18.154-118.933v9.957l-1.486 5.433.065 36.178"/>
    <path d="M90.456 204.977s2.004-9.09 9.42-11.59c7.415-2.5 9.697 5.453 9.697 5.453M91.392 304.609c0-1.102 14.342-1.994 32.36-1.994m-32.089-53.822c-1.165-.746-1.797-1.547-1.797-2.381 0-4.086 15.208-7.396 33.968-7.396s33.968 3.311 33.968 7.396c0 .799-.582 1.568-1.659 2.291m-64.669 17.108c0-2.982 14.343-5.398 32.36-5.398s32.047 2.416 32.047 5.398m-64.407 19.4c0-2.041 14.343-3.699 32.36-3.699s32.047 1.658 32.047 3.699m-44.264-81.115c0-3.078 2.496-5.574 5.574-5.574 3.079 0 5.575 2.496 5.575 5.574h1.968c0-3.078 2.496-5.574 5.575-5.574 3.078 0 5.574 2.496 5.574 5.574"/>
    <path d="M114.545 239.309v-23.327c0-5.072 4.111-9.185 9.184-9.185s9.185 4.112 9.185 9.185v23.327m6.906-36.207c.167-2.744 2.02-4.572 4.137-4.085 2.115.487 3.696 3.106 3.528 5.851l1.353.311c.168-2.744 2.02-4.572 4.136-4.086 2.117.487 3.696 3.106 3.528 5.851m-13.845 32.552v-23.328c0-5.071 2.428-8.648 5.423-7.99 2.996.659 5.424 5.305 5.424 10.377v23.326m-45.055-38.779c-.168-2.744-2.02-4.572-4.138-4.085-2.115.487-3.695 3.106-3.527 5.851l-1.353.311c-.168-2.744-2.021-4.572-4.137-4.086-2.117.487-3.696 3.106-3.528 5.851m13.846 32.552v-23.328c0-5.071-2.429-8.648-5.424-7.99-2.995.659-5.424 5.305-5.424 10.377v23.326m-70.91 69.031h71.088l65.429-11.35m.069 8.512l-65.465 24.735H23.854m32 21.8l39.297.022 68.911-40.057m-69.083-3.537v44.231m20.728-48.182v35.779m14.447-38.238v29.785m12.142-31.631v24.561m7.531-26.096v21.793m10.758-23.482v17.181m-4.917-16.365v19.078"/>
  </g>
  <g fill="#343433">
    <circle cx="270.991" cy="304.828" r="2.311"/>
    <circle cx="258.951" cy="302.684" r="2.312"/>
    <circle cx="251.363" cy="301.328" r="2.311"/>
    <path d="M247.953 300.373c0-1.275-1.034-2.309-2.311-2.309s-2.311 1.033-2.311 2.309c0 1.279 1.033 2.312 2.311 2.312 1.277.001 2.311-1.033 2.311-2.312z"/>
    <circle cx="240.689" cy="299.629" r="2.312"/>
    <circle cx="306.114" cy="311.107" r="2.312"/>
    <circle cx="285.489" cy="307.572" r="2.311"/>
    <path d="M308.293 356.084c.44-1.197-.174-2.527-1.372-2.967-1.198-.441-2.527.174-2.968 1.373-.439 1.195.175 2.525 1.373 2.967 1.198.439 2.527-.176 2.967-1.373z"/>
    <circle cx="285.367" cy="342.816" r="2.312"/>
    <circle cx="270.963" cy="334.318" r="2.312"/>
    <circle cx="258.814" cy="327.23" r="2.312"/>
    <circle cx="251.237" cy="322.828" r="2.311"/>
    <circle cx="245.53" cy="319.5" r="2.311"/>
    <circle cx="240.626" cy="316.682" r="2.311"/>
    <circle cx="130.206" cy="304.828" r="2.312"/>
    <circle cx="142.246" cy="302.684" r="2.311"/>
    <circle cx="149.833" cy="301.328" r="2.311"/>
    <path d="M153.243 300.373c0-1.275 1.034-2.309 2.312-2.309 1.276 0 2.311 1.033 2.311 2.309 0 1.279-1.034 2.312-2.311 2.312-1.278.001-2.312-1.033-2.312-2.312z"/>
    <circle cx="160.507" cy="299.629" r="2.311"/>
    <circle cx="95.083" cy="311.107" r="2.311"/>
    <circle cx="115.708" cy="307.572" r="2.312"/>
    <path d="M92.903 356.084c-.44-1.197.175-2.527 1.373-2.967 1.198-.441 2.526.174 2.967 1.373.44 1.195-.175 2.525-1.373 2.967-1.198.439-2.525-.176-2.967-1.373z"/>
    <circle cx="115.83" cy="342.816" r="2.311"/>
    <circle cx="130.233" cy="334.318" r="2.312"/>
    <circle cx="142.382" cy="327.23" r="2.311"/>
    <circle cx="149.959" cy="322.828" r="2.311"/>
    <circle cx="155.667" cy="319.5" r="2.311"/>
    <circle cx="160.571" cy="316.682" r="2.312"/>
  </g>
  <path fill="#343433" d="M163.578 215.622c.44 0 .797-.357.797-.797v-3.928l3.227 4.231c.22.282.45.472.838.472h.053c.45 0 .806-.355.806-.807v-5.836c0-.439-.355-.796-.796-.796-.439 0-.796.356-.796.796v3.782l-3.111-4.085c-.22-.283-.451-.472-.838-.472h-.168c-.45 0-.807.356-.807.808v5.834c-.001.44.356.798.795.798zm11.047.062c2.263 0 3.907-1.707 3.907-3.793v-.021c0-2.085-1.624-3.771-3.887-3.771s-3.908 1.707-3.908 3.791v.021c0 2.086 1.624 3.773 3.888 3.773zm-2.2-3.813c0-1.257.9-2.284 2.2-2.284 1.298 0 2.221 1.049 2.221 2.305v.021c0 1.258-.901 2.283-2.2 2.283s-2.221-1.047-2.221-2.305v-.02zm8.354 3.687h2.053c2.305 0 3.897-1.603 3.897-3.667v-.021c0-2.063-1.593-3.646-3.897-3.646h-2.053c-.451 0-.808.356-.808.807v5.72c.001.451.357.807.808.807zm.806-5.877h1.247c1.319 0 2.21.911 2.21 2.21v.021c0 1.299-.891 2.189-2.21 2.189h-1.247v-4.42zm7.391 5.877h4.117c.397 0 .723-.313.723-.712s-.325-.724-.723-.724h-3.321v-1.54h2.797c.398 0 .724-.313.724-.712s-.325-.723-.724-.723h-2.797v-1.487h3.269c.398 0 .724-.314.724-.713 0-.397-.325-.723-.724-.723h-4.064c-.45 0-.807.356-.807.807v5.72c-.001.451.355.807.806.807zm6.069-.774c.817.586 1.792.879 2.755.879 1.582 0 2.692-.816 2.692-2.273v-.021c0-1.277-.838-1.811-2.325-2.199-1.268-.324-1.582-.482-1.582-.964v-.021c0-.357.325-.639.943-.639.503 0 1.006.178 1.54.492.125.074.251.115.408.115.419 0 .754-.326.754-.744 0-.314-.178-.534-.355-.639-.66-.419-1.436-.65-2.326-.65-1.498 0-2.566.881-2.566 2.211v.021c0 1.456.953 1.865 2.43 2.241 1.227.316 1.478.525 1.478.933v.022c0 .43-.397.691-1.058.691-.713 0-1.32-.252-1.876-.66-.104-.074-.251-.147-.46-.147-.42 0-.755.325-.755.745-.001.249.125.48.303.607zm10.291.9c1.174 0 1.948-.346 2.608-.922.147-.127.272-.324.272-.576 0-.408-.346-.744-.754-.744-.189 0-.356.073-.482.179-.461.366-.911.575-1.592.575-1.257 0-2.127-1.047-2.127-2.305v-.021c0-1.257.891-2.284 2.127-2.284.576 0 1.047.189 1.498.525.115.072.262.156.482.156.439 0 .796-.346.796-.786 0-.282-.146-.513-.314-.639-.608-.45-1.352-.743-2.452-.743-2.252 0-3.823 1.707-3.823 3.791v.021c0 2.107 1.603 3.773 3.761 3.773zm5.106-.062c.45 0 .807-.357.807-.807v-2.2h2.976v2.2c0 .449.355.807.806.807s.807-.357.807-.807v-5.846c0-.451-.356-.808-.807-.808s-.806.356-.806.808v2.158h-2.976v-2.158c0-.451-.356-.808-.807-.808-.451 0-.807.356-.807.808v5.846c.001.449.356.807.807.807zm10.722.062c2.263 0 3.907-1.707 3.907-3.793v-.021c0-2.085-1.624-3.771-3.887-3.771s-3.907 1.707-3.907 3.791v.021c0 2.086 1.624 3.773 3.887 3.773zm-2.201-3.813c0-1.257.902-2.284 2.201-2.284s2.221 1.049 2.221 2.305v.021c0 1.258-.901 2.283-2.2 2.283s-2.222-1.047-2.222-2.305v-.02zm11.109 3.813c2.264 0 3.908-1.707 3.908-3.793v-.021c0-2.085-1.624-3.771-3.887-3.771s-3.908 1.707-3.908 3.791v.021c.001 2.086 1.625 3.773 3.887 3.773zm-2.199-3.813c0-1.257.9-2.284 2.199-2.284 1.3 0 2.222 1.049 2.222 2.305v.021c0 1.258-.901 2.283-2.2 2.283s-2.221-1.047-2.221-2.305v-.02zm8.354 3.687h3.793c.408 0 .732-.325.732-.733s-.324-.732-.732-.732h-2.985v-5.123c0-.451-.356-.808-.808-.808-.45 0-.807.356-.807.808v5.782c0 .45.356.806.807.806z"/>
  <g fill="#343433">
    <path d="M277.123 391.9c-.512-.891-1.65-1.193-2.537-.68l-66.35 38.307 28.219-36c.633-.809.49-1.977-.316-2.607-.809-.631-1.975-.492-2.607.314l-30.819 39.32v-38.432c0-1.025-.832-1.857-1.856-1.857-1.025 0-1.857.832-1.857 1.857v38.43l-30.82-39.318c-.633-.807-1.798-.947-2.608-.314-.806.631-.947 1.799-.315 2.607l28.219 36-67.573-39.014c-.888-.512-2.024-.209-2.537.68-.512.889-.209 2.023.68 2.537l75.884 43.811c.019.01.039.014.057.023.066.035.133.062.203.09.022.01.04.025.063.035.019.006.039.004.058.01.035.01.067.023.102.033.145.035.291.057.439.057l.008.002s.002-.002.004-.002c.15 0 .299-.021.443-.057.031-.008.061-.021.092-.031.042-.012.081-.029.122-.045.071-.027.142-.055.211-.092.019-.01.038-.014.056-.023l74.66-43.105c.884-.512 1.187-1.647.675-2.536z"/>
    <circle cx="284.001" cy="388.404" r="2.327"/>
    <circle cx="117.61" cy="387.932" r="2.328"/>
    <path d="M153.395 382.496c-.438-.531-.366-1.295.163-1.736.529-.439 1.297-.367 1.735.164l2.103 2.539 3.503-2.9-2.104-2.539c-.439-.529-.368-1.295.163-1.734.529-.439 1.296-.367 1.734.164l5.697 6.877c.438.531.367 1.297-.162 1.736-.531.438-1.297.365-1.736-.164l-2.144-2.59-3.501 2.9 2.144 2.59c.438.529.367 1.297-.163 1.734-.529.439-1.297.367-1.735-.162l-5.697-6.879zm41.986-3.178l3.905-8.818c.272-.609.769-.977 1.44-.977h.145c.672 0 1.152.367 1.425.977l3.905 8.818c.08.176.129.336.129.496 0 .656-.512 1.186-1.168 1.186-.578 0-.962-.336-1.186-.85l-.753-1.76h-4.93l-.784 1.84c-.208.48-.624.77-1.137.77-.641 0-1.137-.512-1.137-1.152.001-.176.066-.354.146-.53zm6.931-3.105l-1.553-3.697-1.553 3.697h3.106zm41.708-.127c.447-.521 1.215-.582 1.738-.135l2.955 2.529c1.082.926 1.66 1.949 1.74 2.986.068.881-.248 1.768-.934 2.57l-.023.025c-1.143 1.336-2.52 1.59-3.918 1.131l-.053 2.695c-.016.387-.061.686-.311.979-.447.521-1.176.488-1.625.104-.426-.365-.529-.812-.508-1.279l.152-3.871-1.494-1.279-1.594 1.859c-.447.523-1.215.582-1.738.135-.521-.447-.582-1.215-.135-1.736l5.748-6.713zm1.031 6.426c.912.779 1.852.74 2.467.023l.02-.023c.688-.803.482-1.695-.43-2.477l-1.861-1.592-2.092 2.443 1.896 1.626z"/>
  </g>
</svg>
